<svg height="512pt" fill="#0f1a1faa" stroke="#0f1a1faa" viewBox="-20 0 512 512" width="512pt" xmlns="http://www.w3.org/2000/svg"><path d="m471.589844 493.628906-23.539063-102c-.363281-1.578125-.976562-3.039062-1.777343-4.367187l-72.835938-315.625c0-.003907-.003906-.003907-.003906-.007813l-.351563-1.535156c-.003906-.007812-.003906-.015625-.007812-.023438-4.582031-19.832031-15.875-37.738281-31.808594-50.410156-15.9375-12.679687-35.929687-19.660156-56.292969-19.660156-20.367187 0-40.359375 6.980469-56.292968 19.660156-15.9375 12.679688-27.238282 30.585938-31.816407 50.429688l-35.578125 154.171875-28.734375-34.246094 11.488281-9.640625c6.347657-5.324219 7.175782-14.789062 1.851563-21.132812l-57.851563-68.945313c-5.324218-6.34375-14.789062-7.171875-21.132812-1.847656l-11.492188 9.640625-28.921874-34.472656c-5.328126-6.34375-14.789063-7.171876-21.132813-1.847657-6.347656 5.324219-7.175781 14.789063-1.847656 21.132813l28.921875 34.472656-11.488282 9.640625c-3.050781 2.558594-4.957031 6.222656-5.304687 10.183594-.347656 3.964843.898437 7.902343 3.453125 10.949219l57.851562 68.945312c2.558594 3.046875 6.222657 4.957031 10.183594 5.300781.4375.039063.875.058594 1.308594.058594 3.511719 0 6.929688-1.234375 9.640625-3.511719l11.492187-9.640625 43.269532 51.566407-53.714844 232.761718c-1.027344 4.453125.03125 9.132813 2.878906 12.710938 2.84375 3.574218 7.164063 5.660156 11.738282 5.660156h343.230468c4.570313 0 8.890625-2.085938 11.738282-5.660156 2.84375-3.578125 3.902343-8.257813 2.878906-12.710938zm-419.871094-353.273437 22.980469-19.285157 38.566406 45.964844-22.980469 19.285156zm233.253906-110.355469c22.089844 0 41.6875 11.734375 52.25 30h-104.503906c10.5625-18.265625 30.164062-30 52.253906-30zm-61.914062 60h123.828125l66.921875 290h-113.835938v-30h15c8.28125 0 15-6.714844 15-15s-6.71875-15-15-15h-15v-30h15c8.28125 0 15-6.714844 15-15s-6.71875-15-15-15h-15v-30h15c8.28125 0 15-6.714844 15-15s-6.71875-15-15-15h-15v-30h15c8.28125 0 15-6.714844 15-15s-6.71875-15-15-15h-30c-8.285156 0-15 6.714844-15 15v198.789062l-84.539062-100.75zm29.746094 290h-96.667969l20.851562-90.355469zm-119.4375 102 16.613281-72h134.988281.011719.007812 135.742188l16.613281 72zm0 0"/></svg>