<svg id="Capa_1" fill="#0f1a1faa" stroke="#0f1a1faa" enable-background="new 0 0 512 512" height="512" viewBox="0 0 512 512" width="512" xmlns="http://www.w3.org/2000/svg"><g><path d="m224.394 382.398c-32.75 32.749-86.037 32.749-118.787 0-5.857-5.858-15.355-5.858-21.213 0s-5.858 15.355 0 21.213c22.224 22.224 51.415 33.335 80.606 33.335s58.383-11.111 80.606-33.335c5.858-5.858 5.858-15.355 0-21.213-5.857-5.858-15.355-5.858-21.212 0z"/><path d="m220 282c-13.451 0-26.096 5.238-35.606 14.749-5.858 5.858-5.858 15.355 0 21.213 5.857 5.857 15.355 5.857 21.213 0 3.844-3.845 8.956-5.962 14.393-5.962s10.549 2.117 14.394 5.962c2.929 2.929 6.768 4.394 10.606 4.394s7.678-1.465 10.606-4.393c5.858-5.858 5.858-15.355 0-21.213-9.51-9.512-22.155-14.75-35.606-14.75z"/><path d="m95.606 317.962c3.845-3.845 8.957-5.962 14.394-5.962s10.549 2.117 14.394 5.962c2.929 2.929 6.768 4.394 10.606 4.394s7.678-1.465 10.606-4.393c5.858-5.858 5.858-15.355 0-21.213-9.51-9.512-22.155-14.75-35.606-14.75s-26.096 5.238-35.606 14.749c-5.858 5.858-5.858 15.355 0 21.213 5.857 5.858 15.355 5.857 21.212 0z"/><path d="m416.394 104.394c-3.845 3.845-8.956 5.962-14.394 5.962s-10.549-2.117-14.394-5.962c-5.856-5.857-15.354-5.858-21.213 0-5.858 5.858-5.858 15.355 0 21.213 9.511 9.511 22.155 14.749 35.606 14.749s26.096-5.238 35.606-14.749c5.858-5.858 5.858-15.355 0-21.213-5.856-5.858-15.354-5.858-21.211 0z"/><path d="m306.394 104.394c-3.845 3.845-8.956 5.962-14.394 5.962s-10.549-2.117-14.394-5.962c-5.857-5.857-15.355-5.858-21.213 0s-5.858 15.355 0 21.213c9.511 9.511 22.155 14.749 35.606 14.749s26.096-5.238 35.606-14.749c5.858-5.858 5.858-15.355 0-21.213-5.856-5.858-15.354-5.858-21.211 0z"/><path d="m347 0c-90.981 0-165 74.019-165 165 0 5.927.371 11.938 1.07 17.994-5.936-.65-11.963-.994-18.07-.994-90.981 0-165 74.019-165 165s74.019 165 165 165 165-74.019 165-165c0-6.084-.341-12.089-.986-18.004 5.975.655 11.98 1.004 17.986 1.004 90.981 0 165-74.019 165-165s-74.019-165-165-165zm-182 482c-74.439 0-135-60.561-135-135s60.561-135 135-135 135 60.561 135 135-60.561 135-135 135zm182-182c-8.208 0-16.418-.756-24.507-2.247-6.116-19.516-15.77-37.48-28.202-53.146 32.955-26.601 81.495-24.607 112.103 5.999 2.928 2.93 6.767 4.394 10.606 4.394s7.678-1.464 10.606-4.394c5.858-5.858 5.858-15.355 0-21.213-42.139-42.139-109.325-44.32-154.066-6.559-17.009-14.888-37.089-26.347-59.157-33.283-1.582-8.323-2.383-16.551-2.383-24.551 0-74.439 60.561-135 135-135s135 60.561 135 135-60.561 135-135 135z"/></g></svg>